PathFileType	4	(X/Y/Z)	RBDS012\RBDS012runT25.trc
DataRate	CameraRate	NumFrames	NumMarkers	Units	OrigDataRate	OrigDataStartFrame	OrigNumFrames
150.000000	150.000000	4	33	mm	150.000000	1125	4500
Frame#	Time	L.ASIS			L.Heel.Bottom			L.Heel.Lateral			L.Heel.Top			L.Iliac.Crest			L.MT1			L.MT5			L.PSIS			L.Shank.Bottom.Lateral			L.Shank.Bottom.Medial			L.Shank.Top.Lateral			L.Shank.Top.Medial			L.Thigh.Bottom.Lateral			L.Thigh.Bottom.Medial			L.Thigh.Top.Lateral			L.Thigh.Top.Medial			R.ASIS			R.ASY			R.Heel.Bottom			R.Heel.Lateral			R.Heel.Top			R.Iliac.Crest			R.MT1			R.MT5			R.PSIS			R.Shank.Bottom.Lateral			R.Shank.Bottom.Medial			R.Shank.Top.Lateral			R.Shank.Top.Medial			R.Thigh.Bottom.Lateral			R.Thigh.Bottom.Medial			R.Thigh.Top.Lateral			R.Thigh.Top.Medial			
		X1	Y1	Z1	X2	Y2	Z2	X3	Y3	Z3	X4	Y4	Z4	X5	Y5	Z5	X6	Y6	Z6	X7	Y7	Z7	X8	Y8	Z8	X9	Y9	Z9	X10	Y10	Z10	X11	Y11	Z11	X12	Y12	Z12	X13	Y13	Z13	X14	Y14	Z14	X15	Y15	Z15	X16	Y16	Z16	X17	Y17	Z17	X18	Y18	Z18	X19	Y19	Z19	X20	Y20	Z20	X21	Y21	Z21	X22	Y22	Z22	X23	Y23	Z23	X24	Y24	Z24	X25	Y25	Z25	X26	Y26	Z26	X27	Y27	Z27	X28	Y28	Z28	X29	Y29	Z29	X30	Y30	Z30	X31	Y31	Z31	X32	Y32	Z32	X33	Y33	Z33	

1126	7.500000000000001	2139.748525816918	966.8497106588543	855.4814738790856	2048.022562969519	32.2226710361578	945.7648043764955	2077.459919999207	46.13655826241295	899.2045127034271	2059.764433578102	81.96437868322012	946.7324741807699	2091.392839204715	1027.539511686574	818.5537016166846	2274.092711490732	40.89971440575007	985.2746583544198	2245.965528807003	42.10228865333166	867.5370945257345	1975.755858719562	1017.781530723827	948.8987576982936	2155.643938438925	162.0113457163376	886.5722678456626	2109.426838677276	175.8585644093517	913.6638669903936	2166.171821543319	239.5970761105845	867.5078993571024	2122.992186226309	254.2989224261597	896.0663163951635	2221.29926123398	614.7141638169438	828.4801132062045	2161.349326633033	584.8124927538149	856.9700058761213	2161.927227927037	705.5706937399824	807.5862544722352	2106.388602061796	679.0912932857892	837.6062884943874	2149.238115351637	965.7162333287049	1126.272859881583	1622.889193702009	360.0374098216745	1044.027447198003	1565.890643516348	553.4136656111776	1050.225517324177	1579.117511949725	528.4595489216341	1087.12676942827	1614.914569884964	541.2311686039175	1052.894966165931	2113.098382260909	1034.12915183965	1154.144071964196	1581.975906705751	334.5760198477704	988.2162443102544	1567.522958611237	351.4263788207062	1106.636575781551	1981.909310277751	1013.412718778878	1052.816484283366	1707.196085144787	473.7034673918993	1104.607620641567	1714.188000287087	517.4721011334781	1078.095735301034	1789.607579040373	475.852382269063	1125.803467595151	1791.881000999756	522.2628377592989	1099.363443968143	2052.944267311148	551.0714622559991	1155.61755912025	2001.238378260051	552.9251200498364	1102.513259411282	2039.351515979463	658.9745921450134	1168.661862710496	1989.082682110974	661.1116237195369	1121.066197750822	
1127	7.506666666666667	2137.83505879254	962.9570164685736	854.3060144153469	2031.934385658851	32.90945421344408	945.6551314334935	2061.308662525541	46.75935667111206	899.0339402813502	2043.750250861667	82.64455401926035	946.5423660871016	2088.534543265448	1023.121795312521	818.335250224666	2257.934825614458	41.18832597533376	984.8223338257325	2229.633355410011	42.61335053710133	866.9822091057522	1974.042233670268	1013.836134437807	949.6318903103338	2143.011081153727	161.7691042739665	886.6225265291802	2097.062564569253	177.3052769368787	913.370631303015	2156.187423064194	238.9289519967008	867.2838100648686	2113.456868872297	255.1783370222169	895.6840582479447	2219.150535493587	611.3469753288163	827.4376144048964	2159.243825198429	581.5847655925704	856.2179234734099	2159.887420478404	702.3243979807107	806.7035303903421	2104.378473266715	675.9547943172029	836.956524794012	2147.817070010353	960.4450723633772	1125.720118332334	1634.150573847951	364.1614868218556	1045.255340761564	1579.107361403084	557.9797362984432	1052.329291470548	1592.343180996539	532.9042172050373	1089.078687159805	1628.057542325151	545.3337540839809	1054.690402258582	2110.562143751148	1028.363449947339	1154.430600387244	1592.521238940473	339.147120097047	989.8282006718352	1579.21441130664	356.0479568875356	1108.363885199711	1979.710968942005	1008.597481977609	1053.135073184429	1719.740208741628	475.9772854315749	1106.124946093892	1727.67324213853	519.7612249500338	1079.978577773837	1802.091104288716	476.1418065173849	1127.510298269265	1805.422913404157	522.6806234319761	1101.294878891601	2061.425106611773	547.0482040466486	1157.134492481422	2009.375166894996	547.0583725325923	1104.474161495896	2044.984123728309	654.6833561983062	1169.475589040789	1994.444406988235	655.0443308243332	1122.108833651973	
1128	7.513333333333334	2136.035849779515	959.7115861854114	853.2508340316492	2015.753774391136	33.41224483337773	945.5711903489731	2045.040137087297	47.21626814859577	898.8758085455562	2027.549110189027	83.14571095467032	946.3429560010579	2085.592062703811	1019.803687541269	818.0920358801134	2241.585594549267	41.6652132847582	984.4069198148346	2213.130235467599	43.23179165324879	866.5342311667958	1972.475229924269	1010.738861428169	950.1207467985104	2129.685938612703	161.475075195507	886.6345481549827	2084.084001579285	178.5432856537487	913.1253775808636	2145.264126535271	238.1642406244272	867.0725163104843	2103.016961979816	255.7944084254313	895.3718095459418	2216.144137719715	607.9778431982166	826.5271959540217	2156.104241625946	578.5266081994437	855.4196715278674	2157.343342123183	699.2861060320897	805.9431868492128	2101.726730067926	673.193183851141	836.2918930767195	2146.317968922054	956.0718417210074	1125.19616949753	1646.332221637573	367.0279094936371	1046.462818573527	1592.213531750031	561.0050911593477	1054.099267778806	1605.612862363545	535.9625869556104	1090.709281597468	1641.171255279247	548.1603098685922	1056.11368465777	2107.832654352137	1023.714189952811	1154.6817015473	1604.091549114451	342.1638074991154	991.4602284255189	1591.920220986378	359.2525307909411	1110.033523762513	1977.688812671281	1004.827589372909	1053.248500803103	1732.646044392253	477.4849437612365	1107.446209753852	1741.319942088042	521.2572662783846	1081.602454177525	1814.893342909743	476.0513463347714	1129.019328879695	1819.082898620604	522.6848213871313	1102.98330549573	2070.243027690334	543.8918419123805	1158.660243714113	2017.891920638211	542.023798666282	1106.473680750756	2050.920827898973	651.1658005228691	1170.33803620863	2000.124951864319	649.7436648316625	1123.239000096202	
1129	7.52	2134.397104769729	957.1370043255191	852.3711426052241	1999.435879642315	33.7531165565996	945.5111351248228	2028.62810329594	47.51436158976114	898.7379463310239	2011.167755651231	83.48902319567773	946.1514204527425	2082.688897617457	1017.550310109249	817.8172353521977	2225.059583835494	42.12611606607168	984.0708196131842	2196.481440491119	43.79799718762783	866.2127375141769	1971.049325427156	1008.481149606293	950.3294929766796	2115.745430733491	161.0874506298515	886.6256895901587	2070.536058687029	179.5208243299213	912.9198579780862	2133.480149696061	237.2834454127288	866.8936992360819	2091.711311994001	256.1256685659532	895.1152395072571	2212.27146548747	604.6453034096464	825.7740574585862	2151.920992607751	575.6801150257976	854.5942413019225	2154.292197919885	696.492165563639	805.3261478894196	2098.429228833442	670.8440687473104	835.6257556504405	2144.760941265831	952.6947983908683	1124.734315817731	1659.303479682441	368.6239537088849	1047.584270436865	1605.070840443481	562.4882063677341	1055.592658708227	1618.789603646598	537.6039722305865	1092.064977591174	1654.116539185128	549.7076168771613	1057.227059028656	2105.015561005001	1020.248255829672	1154.897945026656	1616.571410444193	343.6311311689125	993.0324626839085	1605.501890253737	360.9718058850331	1111.580852820631	1975.855906578703	1002.072545608076	1053.1456283105	1745.783447051319	478.2211167967634	1108.57956223084	1754.980845185225	521.9766489460313	1082.972798640031	1827.919535003125	475.6139435576817	1130.315314918608	1832.738001124478	522.3235042325406	1104.427602062044	2079.406844804435	541.6404393756241	1160.179080076341	2026.813812918957	537.8784165176152	1108.470917194352	2057.164449963556	648.4493099976237	1171.259661128451	2006.14857118794	645.2489917584646	1124.450338093799	
